<svg width="32" height="32" viewBox="0 0 32 32" fill="none" xmlns="http://www.w3.org/2000/svg">
<path d="M16 0C7.16533 0 0 7.34511 0 16.4045C0 23.6525 4.584 29.8015 10.9427 31.971C11.7413 32.1227 12 31.6142 12 31.1822V28.1282C7.54933 29.1207 6.62267 26.1925 6.62267 26.1925C5.89467 24.2964 4.84533 23.792 4.84533 23.792C3.39333 22.7735 4.956 22.7954 4.956 22.7954C6.56267 22.9102 7.408 24.4864 7.408 24.4864C8.83467 26.9936 11.1507 26.2691 12.064 25.8494C12.2067 24.7899 12.6213 24.0654 13.08 23.6566C9.52667 23.2397 5.79067 21.833 5.79067 15.5487C5.79067 13.7565 6.416 12.2938 7.43867 11.1455C7.27333 10.7313 6.72533 9.06211 7.59467 6.80376C7.59467 6.80376 8.93867 6.36357 11.996 8.48522C13.272 8.12159 14.64 7.93977 16 7.93294C17.36 7.93977 18.7293 8.12159 20.008 8.48522C23.0627 6.36357 24.404 6.80376 24.404 6.80376C25.2747 9.06348 24.7267 10.7326 24.5613 11.1455C25.588 12.2938 26.208 13.7579 26.208 15.5487C26.208 21.8494 22.4653 23.237 18.9027 23.643C19.476 24.1515 20 25.1494 20 26.6805V31.1822C20 31.6183 20.256 32.1309 21.068 31.9696C27.4213 29.7974 32 23.6498 32 16.4045C32 7.34511 24.836 0 16 0Z" fill="#333333"/>
</svg>
