<svg width="32" height="27" viewBox="0 0 32 27" fill="none" xmlns="http://www.w3.org/2000/svg">
<path d="M32 3.07867C30.8227 3.60133 29.5573 3.95333 28.2293 4.112C29.5853 3.3 30.6267 2.01333 31.116 0.48C29.848 1.232 28.4427 1.77867 26.9467 2.07333C25.7507 0.797333 24.0427 0 22.1547 0C17.916 0 14.8013 3.95467 15.7587 8.06C10.304 7.78667 5.46667 5.17333 2.228 1.20133C0.508 4.152 1.336 8.012 4.25867 9.96667C3.184 9.932 2.17067 9.63733 1.28667 9.14533C1.21467 12.1867 3.39467 15.032 6.552 15.6653C5.628 15.916 4.616 15.9747 3.58667 15.7773C4.42133 18.3853 6.84533 20.2827 9.72 20.336C6.96 22.5 3.48267 23.4667 0 23.056C2.90533 24.9187 6.35733 26.0053 10.064 26.0053C22.2533 26.0053 29.14 15.7107 28.724 6.47733C30.0067 5.55067 31.12 4.39467 32 3.07867Z" fill="#1DA1F2"/>
</svg>
